<svg width="28" height="28" viewBox="0 0 28 28" fill="none" xmlns="http://www.w3.org/2000/svg">
<path d="M17.5 25.6665C17.1906 25.6665 16.8939 25.5436 16.6751 25.3248C16.4563 25.106 16.3334 24.8093 16.3334 24.4998V19.8332C16.3333 19.6412 16.3807 19.4521 16.4713 19.2828C16.5618 19.1134 16.6928 18.9691 16.8525 18.8625L20.3525 16.5292C20.5443 16.4013 20.7696 16.333 21 16.333C21.2305 16.333 21.4558 16.4013 21.6475 16.5292L25.1475 18.8625C25.3073 18.9691 25.4382 19.1134 25.5288 19.2828C25.6194 19.4521 25.6667 19.6412 25.6667 19.8332V24.4998C25.6667 24.8093 25.5438 25.106 25.325 25.3248C25.1062 25.5436 24.8095 25.6665 24.5 25.6665H17.5Z" stroke="white" stroke-width="1.5" stroke-linecap="round" stroke-linejoin="round"/>
<path d="M21 11.6668C21 9.19148 20.0167 6.81751 18.2664 5.06717C16.516 3.31683 14.1421 2.3335 11.6667 2.3335C9.19135 2.3335 6.81738 3.31683 5.06704 5.06717C3.3167 6.81751 2.33337 9.19148 2.33337 11.6668C2.33337 17.492 8.79554 23.5587 10.9655 25.4323C11.1678 25.584 11.4139 25.6659 11.6667 25.6657" stroke="white" stroke-width="1.5" stroke-linecap="round" stroke-linejoin="round"/>
<path d="M21 25.6665V22.1665" stroke="white" stroke-width="1.5" stroke-linecap="round" stroke-linejoin="round"/>
<path d="M11.6666 15.1665C13.5996 15.1665 15.1666 13.5995 15.1666 11.6665C15.1666 9.73351 13.5996 8.1665 11.6666 8.1665C9.73363 8.1665 8.16663 9.73351 8.16663 11.6665C8.16663 13.5995 9.73363 15.1665 11.6666 15.1665Z" stroke="white" stroke-width="1.5" stroke-linecap="round" stroke-linejoin="round"/>
</svg>
